<?xml version="1.0" encoding="UTF-8"?>
<svg width="1200pt" height="1200pt" version="1.1" viewBox="0 0 1200 1200" xmlns="http://www.w3.org/2000/svg">
 <path d="m1120.6 275.9c-15.891-11.109-37.734-9.4688-53.391 1.9219-11.766 8.5781-24.469 15.797-37.641 22.406l-129.98-129.98c6.6562-13.172 13.969-25.875 22.594-37.641 6.0938-8.5781 9.2344-18.469 9.2344-28.125 0-11.484-4.2656-22.734-12.844-31.5-19.781-19.594-52.219-16.641-68.859 5.8594-49.125 66.656-74.109 150.47-73.5 244.22-140.58-17.812-263.76 18.797-349.08 103.88-85.125 85.312-121.5 208.45-103.83 349.08-93.844-0.65625-177.71 24.422-244.45 73.688-22.5 16.641-25.406 49.031-5.8594 68.859 16.219 15.984 41.391 16.875 59.625 3.6094 11.766-8.625 24.516-15.891 37.688-22.547l130.08 130.08c-6.6562 13.172-14.016 25.875-22.594 37.641-13.266 18.422-12.375 43.406 3.6094 59.625 19.781 19.594 52.219 16.641 68.859-5.8594 41.156-55.781 65.484-123.52 72-199.13v-0.046875c-10.359-1.125-20.906-2.7188-31.453-4.5-19.828-3.375-39.188-5.3906-58.125-6.0938-1.7812 25.828-7.125 49.781-14.203 72.703l-102.89-102.89c53.766-16.641 115.69-19.781 182.63-8.2969 151.22 25.641 284.16-9.8906 374.63-100.12 75.844-76.078 113.16-182.26 107.77-303.98-29.391 0.046875-60.141-2.2031-90.891-7.2188 1.2656 16.875 1.4062 33.328 0.65625 49.359l-101.25-101.25c31.031-1.5 63.609 0.1875 97.688 6 130.08 22.031 246.84-1.125 334.36-65.719 12.375-9.2344 18.891-23.156 18.891-37.125s-6.3281-27.891-19.359-36.984zm-411.52 433.22c-8.4844 8.4844-17.578 16.312-27.141 23.531l-214.74-214.74c7.2188-9.6094 15.094-18.75 23.625-27.281 8.4844-8.4844 17.531-16.266 27.047-23.438l214.6 214.6c-7.2188 9.5625-14.859 18.797-23.391 27.328zm-141.94 73.734-150.1-150.1c5.625-26.953 14.25-52.219 26.062-75.328l199.31 199.31c-23.109 11.812-48.328 20.438-75.281 26.062zm-151.5 1.4531c-5.4844-33.141-7.1719-64.828-5.7656-95.062l100.78 100.78c-30.234 1.4531-61.969-0.23438-95.062-5.7188zm367.36-216.94c-5.625 26.953-14.344 52.125-26.156 75.234l-199.55-199.55c23.109-11.812 48.281-20.438 75.281-26.109zm83.391-234.19c-1.3594-42.281 3.6094-81.844 14.719-117.7l103.22 103.22c-35.906 11.062-75.562 15.844-117.89 14.484z" fill="white"/>
</svg>
