<svg xmlns="http://www.w3.org/2000/svg" width="40" height="40"><g fill="none" fill-rule="evenodd"><path fill="#F33" d="M20 10.56s-.68-1.86-2.54-3.72a9.52 9.52 0 0 0-13.26-.2C.27 10.34.23 16.26 2.67 20.57 7.2 28.6 20 37.1 20 37.1s12.8-8.5 17.33-16.52c2.44-4.32 2.4-10.24-1.53-13.94a9.52 9.52 0 0 0-13.26.2C20.68 8.7 20 10.56 20 10.56z"/><path fill="#FFF" d="M29.4 9.55c.62 0 1.14.5 1.14 1.14v5.9a1.15 1.15 0 0 1-2.3 0v-5.9c0-.63.52-1.14 1.15-1.14z"/><path fill="#FFF" d="M33.4 13.64c0 .63-.5 1.15-1.14 1.15h-5.74a1.15 1.15 0 0 1 0-2.3h5.74c.64 0 1.15.52 1.15 1.15z"/></g></svg>